<mxfile host="Electron" modified="2024-07-12T15:42:29.260Z" agent="Mozilla/5.0 (Windows NT 10.0; Win64; x64) AppleWebKit/537.36 (KHTML, like Gecko) draw.io/24.2.5 Chrome/120.0.6099.109 Electron/28.1.0 Safari/537.36" etag="Sg9KHf66poxaYau0k576" version="24.2.5" type="device">
  <diagram name="Page-1" id="VAhFDREIMf4p6RucwzzQ">
    <mxGraphModel dx="1434" dy="844" grid="1" gridSize="10" guides="1" tooltips="1" connect="1" arrows="1" fold="1" page="1" pageScale="1" pageWidth="850" pageHeight="1100" math="0" shadow="0">
      <root>
        <mxCell id="0" />
        <mxCell id="1" parent="0" />
        <mxCell id="jhlZ_xy3kaKRaitUzcuT-1" value="" style="verticalLabelPosition=bottom;html=1;verticalAlign=top;align=center;strokeColor=none;fillColor=#232F3D;shape=mxgraph.azure.user;" vertex="1" parent="1">
          <mxGeometry x="80" y="120" width="40" height="40" as="geometry" />
        </mxCell>
        <mxCell id="jhlZ_xy3kaKRaitUzcuT-32" value="" style="sketch=0;points=[[0,0,0],[0.25,0,0],[0.5,0,0],[0.75,0,0],[1,0,0],[0,1,0],[0.25,1,0],[0.5,1,0],[0.75,1,0],[1,1,0],[0,0.25,0],[0,0.5,0],[0,0.75,0],[1,0.25,0],[1,0.5,0],[1,0.75,0]];outlineConnect=0;fontColor=#232F3E;fillColor=#8C4FFF;strokeColor=#ffffff;dashed=0;verticalLabelPosition=bottom;verticalAlign=top;align=center;html=1;fontSize=12;fontStyle=0;aspect=fixed;shape=mxgraph.aws4.resourceIcon;resIcon=mxgraph.aws4.route_53;" vertex="1" parent="1">
          <mxGeometry x="240" y="240" width="40" height="40" as="geometry" />
        </mxCell>
        <mxCell id="jhlZ_xy3kaKRaitUzcuT-34" value="" style="sketch=0;points=[[0,0,0],[0.25,0,0],[0.5,0,0],[0.75,0,0],[1,0,0],[0,1,0],[0.25,1,0],[0.5,1,0],[0.75,1,0],[1,1,0],[0,0.25,0],[0,0.5,0],[0,0.75,0],[1,0.25,0],[1,0.5,0],[1,0.75,0]];outlineConnect=0;fontColor=#232F3E;fillColor=#8C4FFF;strokeColor=#ffffff;dashed=0;verticalLabelPosition=bottom;verticalAlign=top;align=center;html=1;fontSize=12;fontStyle=0;aspect=fixed;shape=mxgraph.aws4.resourceIcon;resIcon=mxgraph.aws4.cloudfront;" vertex="1" parent="1">
          <mxGeometry x="400" y="240" width="40" height="40" as="geometry" />
        </mxCell>
        <mxCell id="jhlZ_xy3kaKRaitUzcuT-55" style="edgeStyle=orthogonalEdgeStyle;rounded=0;orthogonalLoop=1;jettySize=auto;html=1;" edge="1" parent="1" source="jhlZ_xy3kaKRaitUzcuT-35">
          <mxGeometry relative="1" as="geometry">
            <mxPoint x="607.21" y="420.0999999999999" as="targetPoint" />
          </mxGeometry>
        </mxCell>
        <mxCell id="jhlZ_xy3kaKRaitUzcuT-35" value="" style="sketch=0;points=[[0,0,0],[0.25,0,0],[0.5,0,0],[0.75,0,0],[1,0,0],[0,1,0],[0.25,1,0],[0.5,1,0],[0.75,1,0],[1,1,0],[0,0.25,0],[0,0.5,0],[0,0.75,0],[1,0.25,0],[1,0.5,0],[1,0.75,0]];outlineConnect=0;fontColor=#232F3E;fillColor=#7AA116;strokeColor=#ffffff;dashed=0;verticalLabelPosition=bottom;verticalAlign=top;align=center;html=1;fontSize=12;fontStyle=0;aspect=fixed;shape=mxgraph.aws4.resourceIcon;resIcon=mxgraph.aws4.s3;" vertex="1" parent="1">
          <mxGeometry x="480" y="400" width="40" height="40" as="geometry" />
        </mxCell>
        <mxCell id="jhlZ_xy3kaKRaitUzcuT-37" value="" style="sketch=0;points=[[0,0,0],[0.25,0,0],[0.5,0,0],[0.75,0,0],[1,0,0],[0,1,0],[0.25,1,0],[0.5,1,0],[0.75,1,0],[1,1,0],[0,0.25,0],[0,0.5,0],[0,0.75,0],[1,0.25,0],[1,0.5,0],[1,0.75,0]];outlineConnect=0;fontColor=#232F3E;fillColor=#DD344C;strokeColor=#ffffff;dashed=0;verticalLabelPosition=bottom;verticalAlign=top;align=center;html=1;fontSize=12;fontStyle=0;aspect=fixed;shape=mxgraph.aws4.resourceIcon;resIcon=mxgraph.aws4.certificate_manager_3;" vertex="1" parent="1">
          <mxGeometry x="600" y="240" width="39" height="39" as="geometry" />
        </mxCell>
        <mxCell id="jhlZ_xy3kaKRaitUzcuT-39" style="edgeStyle=orthogonalEdgeStyle;rounded=0;orthogonalLoop=1;jettySize=auto;html=1;entryX=0;entryY=0.5;entryDx=0;entryDy=0;entryPerimeter=0;" edge="1" parent="1" source="jhlZ_xy3kaKRaitUzcuT-32" target="jhlZ_xy3kaKRaitUzcuT-34">
          <mxGeometry relative="1" as="geometry" />
        </mxCell>
        <mxCell id="jhlZ_xy3kaKRaitUzcuT-41" style="edgeStyle=orthogonalEdgeStyle;rounded=0;orthogonalLoop=1;jettySize=auto;html=1;exitX=1;exitY=0.75;exitDx=0;exitDy=0;exitPerimeter=0;entryX=0.5;entryY=0;entryDx=0;entryDy=0;entryPerimeter=0;" edge="1" parent="1" source="jhlZ_xy3kaKRaitUzcuT-34" target="jhlZ_xy3kaKRaitUzcuT-35">
          <mxGeometry relative="1" as="geometry" />
        </mxCell>
        <mxCell id="jhlZ_xy3kaKRaitUzcuT-42" style="edgeStyle=orthogonalEdgeStyle;rounded=0;orthogonalLoop=1;jettySize=auto;html=1;entryX=0;entryY=0.5;entryDx=0;entryDy=0;entryPerimeter=0;" edge="1" parent="1" source="jhlZ_xy3kaKRaitUzcuT-34" target="jhlZ_xy3kaKRaitUzcuT-37">
          <mxGeometry relative="1" as="geometry" />
        </mxCell>
        <mxCell id="jhlZ_xy3kaKRaitUzcuT-43" style="edgeStyle=orthogonalEdgeStyle;rounded=0;orthogonalLoop=1;jettySize=auto;html=1;entryX=0.5;entryY=0;entryDx=0;entryDy=0;entryPerimeter=0;" edge="1" parent="1" source="jhlZ_xy3kaKRaitUzcuT-1" target="jhlZ_xy3kaKRaitUzcuT-32">
          <mxGeometry relative="1" as="geometry" />
        </mxCell>
        <mxCell id="jhlZ_xy3kaKRaitUzcuT-44" value="S3" style="text;strokeColor=none;fillColor=none;html=1;fontSize=24;fontStyle=1;verticalAlign=middle;align=center;" vertex="1" parent="1">
          <mxGeometry x="450" y="440" width="100" height="40" as="geometry" />
        </mxCell>
        <mxCell id="jhlZ_xy3kaKRaitUzcuT-45" value="Users" style="text;strokeColor=none;fillColor=none;html=1;fontSize=24;fontStyle=1;verticalAlign=middle;align=center;" vertex="1" parent="1">
          <mxGeometry x="10" y="170" width="180" height="20" as="geometry" />
        </mxCell>
        <mxCell id="jhlZ_xy3kaKRaitUzcuT-46" value="R53" style="text;strokeColor=none;fillColor=none;html=1;fontSize=24;fontStyle=1;verticalAlign=middle;align=center;" vertex="1" parent="1">
          <mxGeometry x="170" y="290" width="180" height="20" as="geometry" />
        </mxCell>
        <mxCell id="jhlZ_xy3kaKRaitUzcuT-47" value="Cloudfront" style="text;strokeColor=none;fillColor=none;html=1;fontSize=24;fontStyle=1;verticalAlign=middle;align=center;" vertex="1" parent="1">
          <mxGeometry x="370" y="289" width="100" height="21" as="geometry" />
        </mxCell>
        <mxCell id="jhlZ_xy3kaKRaitUzcuT-48" value="Certificate Manager" style="text;strokeColor=none;fillColor=none;html=1;fontSize=24;fontStyle=1;verticalAlign=middle;align=center;" vertex="1" parent="1">
          <mxGeometry x="590" y="279" width="100" height="40" as="geometry" />
        </mxCell>
        <mxCell id="jhlZ_xy3kaKRaitUzcuT-49" value="OAC Policy" style="text;strokeColor=none;fillColor=none;html=1;fontSize=24;fontStyle=1;verticalAlign=middle;align=center;" vertex="1" parent="1">
          <mxGeometry x="580" y="440" width="100" height="40" as="geometry" />
        </mxCell>
        <mxCell id="jhlZ_xy3kaKRaitUzcuT-51" value="" style="verticalLabelPosition=bottom;aspect=fixed;html=1;shape=mxgraph.salesforce.web;fillColor=#666666;strokeColor=#666666;" vertex="1" parent="1">
          <mxGeometry x="520" y="560" width="60" height="47.400000000000006" as="geometry" />
        </mxCell>
        <mxCell id="jhlZ_xy3kaKRaitUzcuT-54" style="edgeStyle=orthogonalEdgeStyle;rounded=0;orthogonalLoop=1;jettySize=auto;html=1;entryX=1;entryY=0.75;entryDx=0;entryDy=0;entryPerimeter=0;" edge="1" parent="1" source="jhlZ_xy3kaKRaitUzcuT-51" target="jhlZ_xy3kaKRaitUzcuT-35">
          <mxGeometry relative="1" as="geometry" />
        </mxCell>
        <mxCell id="jhlZ_xy3kaKRaitUzcuT-56" value="AWS Cloud" style="sketch=0;outlineConnect=0;gradientColor=none;html=1;whiteSpace=wrap;fontSize=12;fontStyle=0;shape=mxgraph.aws4.group;grIcon=mxgraph.aws4.group_aws_cloud;strokeColor=#232F3D;fillColor=none;verticalAlign=top;align=left;spacingLeft=30;fontColor=#AAB7B8;dashed=0;" vertex="1" parent="1">
          <mxGeometry x="160" y="80" width="625" height="600" as="geometry" />
        </mxCell>
        <mxCell id="jhlZ_xy3kaKRaitUzcuT-57" value="" style="sketch=0;outlineConnect=0;fontColor=#232F3E;gradientColor=none;fillColor=#7AA116;strokeColor=none;dashed=0;verticalLabelPosition=bottom;verticalAlign=top;align=center;html=1;fontSize=12;fontStyle=0;aspect=fixed;pointerEvents=1;shape=mxgraph.aws4.policy;" vertex="1" parent="1">
          <mxGeometry x="608.36" y="392.82" width="63.29" height="54.36" as="geometry" />
        </mxCell>
        <mxCell id="jhlZ_xy3kaKRaitUzcuT-58" value="Web admin" style="text;strokeColor=none;fillColor=none;html=1;fontSize=24;fontStyle=1;verticalAlign=middle;align=center;" vertex="1" parent="1">
          <mxGeometry x="500" y="600" width="100" height="40" as="geometry" />
        </mxCell>
      </root>
    </mxGraphModel>
  </diagram>
</mxfile>
